<?xml version="1.0" standalone="no"?>
<!DOCTYPE svg PUBLIC "-//W3C//DTD SVG 20010904//EN"
 "http://www.w3.org/TR/2001/REC-SVG-20010904/DTD/svg10.dtd">
<svg version="1.0" xmlns="http://www.w3.org/2000/svg"
 width="2078.000000pt" height="2078.000000pt" viewBox="0 0 2078.000000 2078.000000"
 preserveAspectRatio="xMidYMid meet">
<metadata>
Created by potrace 1.14, written by Peter Selinger 2001-2017
</metadata>
<g transform="translate(0.000000,2078.000000) scale(0.100000,-0.100000)"
fill="#000000" stroke="none">
<path d="M10187 20324 c-1 -2 -63 -6 -137 -9 -189 -8 -424 -22 -490 -30 -19
-2 -64 -7 -100 -10 -36 -4 -76 -8 -90 -10 -14 -2 -50 -6 -80 -10 -80 -9 -351
-45 -380 -50 -14 -3 -45 -8 -70 -11 -25 -3 -124 -22 -220 -41 -96 -19 -186
-36 -200 -39 -14 -3 -62 -14 -108 -24 -46 -11 -96 -22 -110 -25 -98 -17 -602
-150 -806 -212 -601 -183 -1590 -623 -2117 -943 -488 -296 -1107 -741 -1449
-1039 -178 -156 -580 -546 -690 -671 -8 -9 -46 -50 -85 -91 -75 -79 -215 -233
-261 -287 -16 -19 -38 -44 -49 -56 -11 -12 -42 -48 -70 -81 -27 -32 -55 -63
-61 -69 -22 -24 -291 -353 -314 -386 -14 -19 -33 -45 -43 -57 -47 -54 -227
-325 -384 -578 -324 -523 -710 -1291 -881 -1755 -127 -341 -328 -976 -377
-1190 -2 -8 -20 -80 -40 -160 -20 -80 -39 -155 -41 -168 -3 -13 -16 -75 -29
-138 -14 -63 -28 -131 -31 -152 -7 -48 -12 -81 -18 -112 -3 -14 -7 -41 -10
-60 -3 -19 -12 -82 -20 -140 -8 -58 -18 -134 -21 -170 -4 -36 -8 -67 -10 -70
-2 -3 -6 -48 -10 -100 -4 -52 -8 -97 -10 -100 -3 -5 -11 -90 -21 -210 -2 -30
-6 -80 -9 -110 -3 -30 -8 -89 -10 -130 -3 -41 -7 -106 -10 -145 -20 -292 -26
-820 -12 -1035 10 -147 16 -224 22 -280 2 -25 7 -79 10 -120 3 -41 8 -88 10
-105 3 -16 7 -55 10 -85 4 -30 10 -89 16 -130 5 -41 11 -97 14 -125 3 -27 8
-61 10 -75 2 -14 7 -45 10 -70 3 -25 8 -56 10 -70 3 -14 7 -45 10 -70 9 -74
46 -293 70 -420 85 -441 307 -1198 501 -1705 14 -38 32 -86 39 -105 124 -337
580 -1228 843 -1650 244 -391 679 -977 976 -1315 132 -150 239 -263 532 -563
165 -170 174 -177 389 -321 226 -151 410 -253 525 -289 36 -12 126 -37 200
-56 143 -37 289 -84 430 -136 177 -66 334 -115 405 -126 17 -3 44 -9 60 -14
17 -5 48 -11 70 -14 22 -3 51 -8 65 -10 150 -29 525 -40 746 -24 336 26 747
126 1029 251 387 171 605 373 650 602 3 17 9 44 12 60 15 66 5 476 -12 504 -2
4 -6 24 -9 46 -13 79 -57 242 -106 387 -162 480 -471 1017 -869 1508 -203 251
-340 395 -797 840 -154 149 -233 232 -372 389 -157 177 -270 325 -439 577
-184 274 -283 444 -432 744 -182 367 -236 490 -302 680 -64 183 -230 807 -264
985 -13 71 -35 214 -40 260 -3 28 -7 69 -10 92 -3 23 -8 68 -10 100 -3 32 -7
85 -10 118 -3 33 -7 98 -10 145 -3 47 -8 112 -10 145 -16 206 -19 279 -20 445
0 165 10 352 19 369 2 3 7 35 10 71 4 36 8 72 11 80 2 8 6 35 9 60 3 25 8 56
11 70 3 14 8 45 11 70 3 25 11 77 19 115 13 67 22 116 31 180 2 17 6 41 9 55
6 27 10 53 26 145 5 33 19 105 29 160 11 55 22 110 24 122 34 173 141 468 316
863 237 536 327 712 501 971 148 221 517 693 699 894 62 68 288 293 331 330
296 250 540 446 774 621 334 251 521 351 1095 586 135 55 259 106 275 113 17
7 44 18 60 25 255 105 572 203 797 245 13 3 34 7 48 10 14 3 79 14 145 24 66
11 138 22 160 26 50 8 89 14 140 20 22 3 47 7 55 10 8 2 38 6 65 10 28 3 61 7
75 10 61 11 200 28 365 44 84 8 556 6 725 -3 41 -2 134 -7 205 -10 72 -4 150
-9 175 -11 25 -2 77 -7 115 -10 101 -8 179 -18 345 -44 36 -6 76 -13 90 -16
14 -3 45 -8 70 -11 107 -14 425 -77 545 -109 168 -44 500 -151 785 -253 309
-111 643 -277 1092 -544 502 -297 817 -552 1382 -1114 359 -357 555 -603 824
-1037 51 -82 92 -150 92 -152 0 -2 42 -77 93 -167 129 -225 148 -259 247 -453
79 -154 208 -437 239 -525 7 -19 17 -44 22 -55 41 -93 180 -543 213 -690 1 -5
10 -46 20 -90 10 -44 22 -93 26 -110 5 -16 12 -42 15 -57 9 -49 15 -79 30
-142 8 -33 16 -74 19 -89 3 -15 12 -60 20 -100 23 -112 45 -228 51 -272 3 -22
7 -49 9 -61 2 -12 7 -45 11 -74 4 -29 8 -60 10 -69 1 -9 6 -45 10 -81 3 -36 8
-81 10 -100 28 -260 28 -874 0 -1160 -5 -48 -19 -202 -20 -220 -1 -16 -14
-125 -21 -180 -2 -19 -6 -55 -9 -80 -3 -25 -7 -56 -10 -70 -2 -14 -7 -45 -10
-70 -3 -25 -12 -81 -20 -125 -8 -44 -17 -96 -20 -115 -16 -103 -48 -245 -140
-620 -2 -8 -20 -69 -39 -135 -218 -750 -462 -1309 -808 -1854 -71 -111 -209
-318 -230 -346 -26 -33 -65 -86 -78 -105 -41 -61 -272 -362 -346 -450 -70 -83
-228 -265 -279 -320 -74 -81 -415 -421 -477 -475 -25 -22 -73 -65 -108 -95
-35 -30 -75 -66 -90 -80 -16 -14 -47 -41 -70 -59 -23 -19 -48 -40 -54 -45 -26
-25 -170 -138 -291 -228 -71 -54 -134 -101 -140 -106 -5 -4 -95 -65 -200 -134
-190 -125 -545 -335 -705 -417 -132 -67 -130 -70 25 -26 70 20 179 58 240 85
11 5 49 21 85 36 128 52 447 218 631 329 315 189 674 447 938 674 78 67 84 72
132 111 186 152 591 570 810 835 85 103 372 486 430 572 8 11 42 61 75 110 67
96 194 299 194 309 0 3 8 18 19 32 10 15 34 56 54 92 19 36 68 126 109 200
134 247 310 637 418 925 154 413 298 924 366 1300 32 176 44 242 48 280 5 37
11 80 21 145 6 39 26 201 30 240 20 220 25 284 32 405 14 273 9 745 -12 994
-16 196 -20 233 -30 311 -3 19 -7 60 -10 90 -11 104 -30 223 -66 415 -12 61
-23 121 -25 135 -3 14 -7 32 -9 40 -3 8 -7 33 -11 55 -3 22 -8 43 -10 46 -2 4
-6 24 -10 45 -3 22 -17 84 -31 139 -14 55 -26 107 -28 115 -2 8 -11 42 -21 75
-10 33 -19 65 -20 70 -29 116 -215 674 -253 760 -5 11 -16 36 -24 55 -212 489
-474 976 -736 1370 -88 130 -294 417 -311 430 -3 3 -17 21 -30 40 -57 83 -224
278 -429 504 -90 99 -322 328 -410 406 -41 36 -79 70 -85 75 -6 6 -63 55 -126
109 -63 54 -126 108 -140 120 -282 241 -744 553 -1135 766 -122 66 -457 234
-540 270 -11 5 -42 19 -70 31 -348 153 -799 316 -1065 385 -72 19 -84 25 -35
19 51 -8 304 -69 415 -102 470 -137 1078 -388 1450 -597 58 -32 123 -69 145
-81 189 -104 417 -249 625 -398 461 -331 751 -587 1212 -1068 227 -238 434
-498 683 -860 124 -181 295 -444 295 -455 0 -3 8 -18 19 -32 33 -48 99 -171
244 -462 254 -508 351 -758 513 -1319 64 -222 168 -629 180 -706 3 -22 8 -43
9 -46 8 -12 55 -307 70 -434 3 -27 8 -63 10 -80 2 -16 7 -61 10 -100 3 -38 7
-88 10 -110 2 -22 7 -71 10 -110 4 -38 8 -90 10 -115 24 -280 24 -793 0 -1075
-2 -22 -6 -87 -10 -145 -3 -58 -8 -118 -10 -135 -2 -16 -7 -61 -10 -100 -3
-38 -11 -101 -16 -140 -6 -38 -12 -88 -15 -110 -3 -22 -8 -51 -10 -65 -3 -14
-7 -41 -10 -60 -2 -19 -11 -67 -19 -107 -8 -39 -17 -89 -21 -110 -3 -21 -7
-46 -10 -55 -3 -10 -8 -30 -10 -45 -3 -16 -14 -71 -26 -123 -11 -52 -22 -105
-24 -118 -13 -68 -103 -409 -145 -547 -69 -229 -221 -653 -280 -781 -10 -24
-19 -45 -19 -48 0 -3 -13 -35 -30 -71 -16 -36 -30 -67 -30 -70 0 -15 -170
-362 -268 -545 -66 -124 -231 -414 -277 -485 -433 -677 -828 -1158 -1395
-1699 -575 -548 -1348 -1087 -2052 -1430 -555 -270 -1031 -458 -1508 -595
-173 -49 -392 -105 -460 -116 -19 -3 -48 -10 -65 -15 -16 -5 -43 -12 -60 -14
-16 -3 -97 -19 -180 -35 -82 -17 -163 -32 -180 -36 -70 -13 -274 -45 -325 -50
-79 -9 -131 -15 -160 -20 -14 -2 -57 -7 -97 -10 -40 -4 -85 -8 -100 -10 -15
-2 -71 -7 -123 -10 -52 -3 -106 -8 -120 -11 -127 -22 -1047 -22 -1255 0 -16 2
-66 6 -110 10 -44 4 -91 9 -105 11 -14 2 -54 7 -90 10 -79 9 -114 13 -160 20
-19 2 -57 7 -85 10 -27 3 -61 7 -75 10 -14 3 -41 7 -60 9 -19 2 -48 6 -65 9
-16 3 -87 15 -156 26 -70 12 -216 39 -325 62 -110 22 -208 42 -219 45 -11 2
-44 9 -73 15 -30 6 -56 9 -58 6 -11 -11 47 -51 145 -100 97 -49 123 -67 154
-109 10 -15 80 -39 157 -54 14 -3 59 -14 100 -24 41 -10 89 -21 105 -24 17 -3
84 -16 150 -30 66 -13 140 -27 165 -31 25 -3 52 -8 60 -10 8 -2 35 -7 60 -10
25 -3 72 -10 105 -15 33 -5 80 -12 105 -15 25 -3 56 -8 70 -10 14 -2 61 -7
105 -10 44 -4 94 -9 110 -11 17 -2 66 -6 110 -9 44 -4 91 -8 105 -11 157 -25
1066 -25 1320 1 19 1 73 6 120 10 85 6 398 42 435 49 11 2 45 7 75 10 30 4 78
11 105 16 28 5 66 11 85 14 19 3 76 13 125 22 50 8 103 18 119 21 29 5 86 17
226 48 41 9 82 18 91 20 51 11 432 111 534 141 165 48 480 154 560 188 17 8
64 26 105 41 106 40 369 146 481 195 82 36 489 236 529 260 8 5 74 41 145 81
390 218 1012 636 1280 860 11 10 76 64 145 121 316 264 730 674 1005 997 11
13 25 29 30 35 31 34 145 168 175 206 19 24 47 58 61 75 103 119 318 426 499
710 356 558 608 1067 817 1645 25 69 51 139 58 155 12 30 98 289 154 466 16
52 57 203 90 335 53 211 68 278 86 374 3 14 7 36 10 50 13 60 16 78 26 130 5
30 12 71 15 90 2 19 6 46 9 60 6 33 12 74 20 135 3 28 8 61 10 75 4 26 22 179
30 260 3 25 7 63 9 85 3 22 7 76 11 120 3 44 8 96 10 115 27 226 28 1072 1
1285 -2 17 -7 68 -11 114 -4 47 -8 92 -10 101 -2 9 -6 41 -9 71 -4 30 -8 65
-10 79 -2 14 -7 52 -10 85 -4 33 -9 67 -11 75 -2 8 -7 38 -11 65 -3 28 -8 57
-9 67 -2 9 -7 38 -11 65 -9 62 -12 81 -18 101 -3 9 -8 38 -10 63 -3 26 -8 53
-10 60 -3 8 -7 30 -10 49 -3 19 -8 44 -10 55 -56 273 -77 362 -146 620 -22 81
-61 208 -107 345 -51 152 -215 581 -280 730 -9 19 -21 49 -28 65 -61 140 -222
464 -299 604 -25 46 -46 85 -46 86 0 3 -49 88 -120 210 -68 116 -133 218 -265
415 -83 124 -158 234 -167 245 -9 11 -50 66 -91 121 -41 56 -82 110 -91 120
-8 11 -56 71 -106 134 -51 63 -106 131 -123 150 -18 19 -70 78 -117 130 -141
157 -216 236 -405 425 -202 203 -252 249 -449 415 -16 14 -37 32 -46 40 -26
24 -210 172 -275 220 -33 25 -62 48 -65 51 -3 3 -63 49 -134 102 -71 53 -125
97 -121 97 29 0 563 -390 720 -525 285 -245 599 -550 819 -796 22 -24 66 -72
97 -106 112 -122 437 -539 544 -698 22 -33 43 -62 46 -65 22 -20 305 -473 385
-617 21 -37 50 -90 66 -118 44 -79 271 -532 307 -615 178 -400 248 -591 377
-1025 70 -235 126 -442 150 -552 22 -102 54 -252 59 -279 9 -51 25 -141 30
-174 3 -19 10 -60 15 -90 12 -73 17 -105 25 -165 8 -69 15 -116 20 -145 3 -14
7 -47 10 -75 10 -88 17 -150 20 -167 2 -9 7 -52 11 -95 3 -43 8 -91 10 -108
24 -229 23 -928 -1 -1215 -2 -25 -6 -79 -9 -120 -4 -41 -8 -91 -11 -110 -2
-19 -7 -62 -10 -95 -3 -33 -7 -76 -10 -95 -2 -19 -7 -55 -9 -80 -12 -105 -32
-258 -40 -310 -3 -14 -7 -45 -11 -70 -10 -74 -12 -81 -30 -175 -9 -49 -19
-101 -22 -115 -82 -444 -356 -1319 -543 -1735 -140 -310 -287 -602 -445 -880
-30 -54 -55 -99 -55 -101 0 -7 -223 -369 -280 -454 -128 -191 -425 -590 -522
-701 -13 -15 -41 -48 -63 -75 -36 -44 -166 -194 -190 -220 -5 -6 -46 -50 -90
-99 -107 -118 -363 -377 -450 -455 -38 -35 -86 -77 -105 -94 -63 -57 -303
-261 -385 -327 -44 -35 -82 -66 -85 -69 -10 -11 -226 -178 -320 -247 -96 -71
-468 -323 -476 -323 -3 0 -32 -18 -65 -40 -33 -22 -62 -40 -64 -40 -2 0 -40
-23 -85 -50 -44 -28 -106 -64 -138 -81 -31 -17 -102 -55 -157 -84 -99 -54
-541 -275 -549 -275 -2 0 -46 -20 -97 -44 -256 -120 -498 -213 -914 -351 -298
-99 -590 -181 -755 -212 -13 -2 -63 -13 -110 -24 -47 -12 -94 -22 -105 -24
-11 -2 -29 -6 -40 -8 -51 -13 -336 -66 -380 -72 -27 -3 -93 -12 -145 -20 -52
-7 -120 -16 -150 -19 -30 -3 -89 -10 -130 -15 -110 -14 -169 -20 -257 -27 -43
-3 -89 -7 -103 -10 -141 -23 -1098 -23 -1310 0 -19 2 -75 7 -125 11 -49 3
-103 8 -120 10 -16 3 -57 7 -90 11 -99 9 -127 13 -185 20 -30 4 -65 8 -77 9
-13 2 -42 6 -65 10 -24 4 -54 8 -68 10 -195 28 -641 112 -774 146 -45 12 -94
23 -110 26 -16 3 -40 9 -54 14 -14 5 -27 8 -29 5 -12 -11 570 -168 707 -190
19 -3 46 -8 60 -11 38 -8 175 -31 235 -40 11 -2 48 -8 82 -14 109 -19 117 -21
163 -26 25 -3 54 -8 65 -10 11 -2 47 -6 80 -10 33 -3 69 -8 80 -10 11 -2 52
-6 90 -10 39 -3 84 -8 100 -10 17 -2 64 -7 105 -11 41 -3 91 -8 110 -10 229
-24 1196 -24 1327 0 10 2 54 7 98 11 99 8 146 13 210 20 28 3 66 8 85 10 95
11 147 17 170 20 14 2 48 7 75 10 77 8 239 34 354 57 57 11 114 22 125 24 81
14 341 75 516 119 80 20 152 38 160 40 31 7 269 74 365 103 133 41 474 165
580 211 11 5 67 28 125 52 298 120 629 277 900 425 95 52 468 269 545 318 367
230 709 486 1175 880 145 123 155 133 405 381 235 234 314 318 470 500 33 39
63 72 66 75 36 33 310 391 451 590 441 624 762 1199 1043 1870 102 243 240
658 331 995 2 6 23 84 47 175 25 91 48 181 53 200 4 19 9 40 10 45 9 35 65
281 69 303 3 15 7 38 10 52 25 132 48 287 80 530 9 72 19 170 29 280 4 41 9
91 11 110 2 19 7 85 11 145 3 61 8 133 10 160 22 281 22 813 0 1070 -2 22 -7
81 -11 130 -4 50 -9 104 -11 120 -1 17 -5 55 -8 85 -5 52 -8 79 -20 170 -2 19
-8 62 -11 95 -4 33 -9 69 -11 80 -2 11 -11 67 -20 125 -18 122 -74 409 -110
560 -14 58 -27 112 -29 121 -55 257 -271 961 -376 1227 -132 333 -376 844
-534 1117 -31 55 -68 119 -81 142 -27 47 -118 193 -185 298 -64 99 -75 115
-109 163 -16 23 -30 47 -30 52 0 4 -3 10 -8 12 -4 2 -50 64 -101 138 -52 74
-98 139 -103 145 -4 5 -67 89 -140 185 -142 189 -207 268 -357 440 -146 167
-478 504 -630 640 -46 41 -96 86 -111 100 -15 14 -38 34 -51 45 -447 376 -745
599 -1137 849 -40 25 -75 46 -78 46 -3 0 -29 15 -57 34 -131 85 -462 267 -678
373 -196 97 -309 147 -539 238 -107 42 -204 81 -215 86 -82 36 -574 206 -740
254 -187 56 -589 151 -720 171 -22 3 -43 8 -46 10 -5 3 -78 15 -174 29 -22 4
-47 8 -55 10 -8 2 -35 7 -60 10 -25 3 -72 10 -105 15 -33 5 -80 12 -105 15
-25 3 -56 8 -70 10 -14 2 -52 7 -85 10 -33 3 -98 10 -145 15 -210 23 -254 26
-475 36 -285 13 -860 7 -1035 -11 -19 -1 -82 -6 -140 -10 -58 -4 -107 -8 -110
-10 -3 -1 -41 -6 -84 -10 -43 -4 -86 -8 -95 -10 -16 -3 -89 -13 -149 -20 -48
-6 -105 -14 -212 -31 -99 -16 -104 -16 -198 -33 -31 -6 -75 -13 -97 -17 -22
-3 -78 -14 -125 -24 -47 -10 -96 -21 -110 -23 -14 -3 -64 -14 -112 -26 -48
-11 -98 -22 -110 -25 -13 -2 -43 -9 -68 -16 -25 -7 -53 -14 -63 -15 -9 -2 -45
-11 -79 -20 -33 -8 -63 -13 -65 -11 -9 8 261 90 482 145 166 42 189 47 265 61
25 5 65 13 90 19 62 14 229 43 385 67 17 3 55 9 85 14 30 5 78 12 105 15 28 3
59 7 70 9 11 2 49 7 85 11 94 10 117 12 335 30 286 25 950 25 1230 0 22 -2 74
-6 115 -9 41 -4 95 -9 120 -11 25 -3 70 -7 100 -10 30 -3 66 -8 80 -10 14 -2
54 -7 90 -10 36 -3 72 -7 80 -10 8 -2 38 -7 65 -10 28 -3 75 -9 105 -15 30 -5
73 -12 95 -15 23 -3 50 -7 62 -9 11 -3 36 -7 54 -10 30 -5 150 -28 204 -39 11
-3 40 -8 65 -13 25 -4 47 -8 50 -9 3 -1 19 -4 35 -8 17 -4 39 -9 50 -11 60
-13 252 -61 330 -83 50 -13 97 -26 105 -28 47 -9 384 -122 635 -213 132 -48
469 -181 545 -215 30 -14 93 -41 140 -62 281 -122 821 -422 1160 -643 147 -95
534 -373 560 -402 3 -3 30 -24 60 -47 30 -23 64 -50 75 -60 11 -10 41 -34 67
-54 282 -216 740 -651 1028 -978 36 -40 70 -78 76 -85 213 -232 760 -993 954
-1330 10 -17 40 -69 67 -116 120 -207 278 -519 405 -805 22 -49 51 -114 65
-144 13 -30 47 -109 74 -175 27 -67 54 -130 59 -141 111 -239 334 -985 406
-1360 2 -11 8 -40 14 -65 5 -25 12 -57 14 -72 3 -15 12 -63 20 -105 25 -128
22 -110 61 -362 3 -19 7 -43 10 -55 2 -12 7 -48 11 -81 7 -66 9 -85 18 -165 4
-30 9 -80 12 -110 3 -30 7 -71 9 -90 2 -19 7 -71 10 -115 3 -44 8 -107 11
-140 14 -163 19 -602 9 -835 -4 -99 -15 -293 -20 -350 -2 -25 -7 -83 -10 -130
-3 -47 -8 -105 -10 -130 -3 -25 -7 -70 -10 -100 -7 -82 -15 -147 -25 -225 -5
-38 -12 -95 -15 -125 -18 -159 -64 -400 -150 -782 -43 -194 -232 -846 -305
-1053 -37 -107 -114 -303 -141 -361 -10 -22 -19 -43 -19 -46 0 -4 -16 -41 -35
-82 -19 -42 -35 -78 -35 -81 0 -9 -56 -128 -181 -380 -145 -292 -185 -368
-289 -540 -40 -66 -80 -134 -90 -151 -35 -61 -317 -491 -330 -504 -3 -3 -25
-34 -49 -70 -24 -36 -68 -98 -98 -137 -29 -40 -79 -108 -110 -150 -68 -92
-256 -327 -293 -364 -14 -15 -34 -38 -45 -52 -131 -166 -676 -715 -950 -958
-113 -100 -379 -314 -489 -394 -16 -11 -33 -25 -40 -31 -35 -33 -349 -249
-517 -356 -308 -197 -648 -391 -950 -542 -418 -209 -1141 -492 -1574 -616
-157 -45 -276 -75 -510 -130 -180 -42 -492 -104 -582 -115 -26 -4 -55 -8 -63
-10 -8 -2 -35 -7 -60 -10 -25 -3 -56 -8 -70 -10 -93 -13 -136 -19 -240 -30
-30 -4 -66 -8 -80 -10 -14 -2 -56 -7 -95 -11 -38 -3 -77 -8 -86 -9 -8 -2 -55
-6 -105 -10 -49 -4 -100 -8 -114 -11 -55 -9 -403 -18 -705 -18 -280 1 -387 4
-585 19 -25 2 -83 6 -130 10 -47 3 -101 8 -120 10 -19 3 -64 7 -100 10 -36 3
-74 7 -85 9 -12 2 -51 7 -87 10 -37 4 -75 8 -85 10 -24 5 -96 14 -158 21 -27
4 -57 8 -65 10 -8 3 -46 9 -85 14 -38 6 -88 13 -110 17 -45 7 -279 51 -340 63
-145 31 -242 53 -320 71 -49 12 -97 23 -105 25 -8 2 -28 6 -45 10 -23 5 -26 4
-15 -4 43 -31 486 -156 765 -216 66 -14 138 -30 160 -35 22 -6 56 -12 75 -15
19 -3 42 -8 50 -10 25 -7 136 -27 165 -30 11 -1 34 -4 50 -8 17 -4 46 -9 65
-11 19 -2 64 -9 100 -15 36 -6 88 -13 115 -16 28 -3 61 -8 75 -10 42 -6 122
-14 200 -21 41 -3 91 -7 110 -9 19 -2 78 -6 130 -10 52 -4 113 -9 135 -11 58
-5 368 -17 445 -17 147 0 644 17 780 27 47 4 117 9 155 11 39 3 93 7 120 11
53 6 77 8 165 18 30 4 66 9 80 11 27 5 77 11 150 20 39 5 173 25 263 40 15 3
42 7 60 10 17 3 66 12 107 20 41 8 86 17 100 19 117 22 166 32 310 67 266 65
733 207 1075 326 55 20 129 46 165 58 114 40 273 104 323 130 16 8 33 15 38
15 5 0 57 23 115 50 58 28 108 50 111 50 6 0 466 231 526 264 26 14 66 37 90
50 23 13 68 37 99 54 383 208 1147 748 1533 1081 105 91 132 115 284 256 200
185 588 585 732 755 35 41 66 77 69 80 3 3 28 34 55 70 28 36 52 67 56 70 3 3
18 23 34 45 17 22 32 42 35 45 3 3 18 23 35 45 16 22 33 45 38 50 56 67 537
757 537 771 0 2 26 44 59 93 32 49 60 93 62 97 2 5 34 59 70 119 98 164 225
407 319 610 18 39 50 107 71 153 22 46 39 85 39 87 0 2 15 36 34 77 136 298
294 722 411 1108 52 173 198 758 221 890 3 14 16 79 29 145 24 122 40 207 50
280 3 23 7 50 9 60 2 11 7 45 11 75 3 30 8 66 10 80 2 14 7 54 10 90 4 36 8
81 10 100 2 19 7 69 10 110 4 41 8 86 10 100 2 14 7 77 10 140 4 63 8 135 10
160 22 266 22 988 1 1170 -3 19 -7 71 -11 116 -3 44 -8 92 -10 105 -2 13 -6
56 -10 94 -3 39 -8 84 -10 100 -7 44 -13 92 -20 160 -3 33 -10 83 -15 110 -5
28 -12 70 -15 95 -3 25 -7 56 -9 70 -6 34 -16 99 -21 135 -5 32 -82 448 -89
480 -1 6 -11 46 -20 90 -10 44 -25 105 -33 135 -8 30 -19 71 -23 90 -23 95
-99 348 -156 520 -20 58 -37 112 -39 120 -4 14 -46 131 -102 285 -29 80 -168
435 -187 480 -159 368 -278 603 -493 974 -177 305 -456 741 -570 891 -19 25
-51 68 -71 96 -47 64 -78 104 -175 223 -43 53 -85 105 -94 116 -26 32 -227
262 -288 330 -378 419 -701 725 -1100 1043 -77 62 -145 116 -151 121 -150 121
-776 561 -798 561 -3 0 -32 18 -65 40 -33 22 -63 40 -67 40 -4 0 -28 13 -54
29 -49 30 -123 72 -265 148 -140 75 -574 288 -740 363 -88 39 -176 79 -195 88
-19 9 -37 17 -40 17 -3 1 -23 9 -45 19 -42 18 -199 82 -275 111 -25 10 -130
46 -235 81 -104 35 -190 64 -190 65 0 0 -7 2 -15 4 -8 2 -93 27 -188 54 -170
50 -426 119 -468 127 -12 2 -77 17 -145 33 -68 16 -137 32 -154 35 -16 3 -41
7 -55 10 -39 8 -213 38 -237 41 -12 2 -34 6 -50 9 -15 3 -48 8 -73 11 -25 4
-56 8 -70 10 -14 2 -45 6 -70 10 -25 3 -63 8 -85 11 -77 11 -91 12 -155 19
-36 4 -72 9 -80 10 -8 1 -46 6 -85 9 -38 4 -86 9 -105 11 -19 2 -71 7 -115 11
-44 3 -93 8 -110 9 -206 20 -742 26 -1035 11 -289 -14 -459 -25 -497 -31 -12
-2 -61 -7 -110 -10 -48 -4 -96 -9 -106 -11 -10 -2 -46 -6 -80 -9 -34 -3 -69
-8 -77 -10 -8 -2 -39 -7 -69 -10 -30 -4 -63 -9 -75 -11 -23 -4 -192 -33 -241
-40 -16 -3 -37 -7 -45 -9 -8 -2 -28 -7 -45 -9 -16 -3 -75 -15 -130 -26 -55
-11 -113 -23 -130 -26 -16 -2 -79 -16 -138 -30 -60 -15 -110 -24 -113 -21 -9
9 287 77 491 112 17 3 50 10 75 15 25 5 72 14 105 20 33 5 71 12 85 15 53 11
125 21 210 30 30 4 66 8 80 10 34 5 115 15 170 20 25 2 61 7 80 10 83 12 143
17 365 29 50 3 142 9 205 13 148 9 735 8 865 -1 55 -4 129 -9 165 -12 36 -2
94 -6 130 -9 36 -2 101 -7 145 -10 79 -6 241 -25 340 -40 44 -7 100 -14 255
-35 78 -10 728 -138 740 -145 3 -2 66 -19 140 -39 74 -19 162 -42 195 -51 33
-9 85 -23 115 -30 30 -8 145 -44 255 -80 110 -37 207 -68 215 -70 40 -10 197
-68 300 -110 63 -26 135 -55 160 -65 79 -30 314 -128 355 -148 22 -11 99 -48
170 -82 211 -101 398 -195 443 -224 23 -14 43 -26 45 -26 19 0 410 -234 634
-379 215 -139 591 -406 728 -518 49 -40 132 -110 140 -119 6 -5 50 -44 100
-85 172 -142 210 -176 320 -280 44 -43 103 -99 131 -125 160 -153 194 -186
243 -240 30 -32 82 -88 115 -125 34 -36 102 -109 151 -164 50 -54 95 -103 100
-109 10 -10 184 -225 269 -330 17 -22 54 -68 81 -102 28 -35 79 -104 115 -154
36 -51 88 -123 115 -161 117 -161 181 -258 332 -504 165 -268 188 -307 268
-460 26 -49 69 -130 95 -180 27 -49 57 -108 69 -130 26 -51 121 -255 121 -261
0 -2 25 -57 56 -121 31 -65 67 -145 80 -178 14 -33 29 -69 34 -80 26 -59 222
-592 243 -660 13 -44 34 -114 47 -155 12 -41 35 -115 51 -165 16 -49 47 -164
69 -255 94 -381 110 -447 115 -480 3 -19 9 -55 15 -80 9 -47 50 -259 56 -298
2 -12 9 -49 14 -82 18 -99 19 -109 35 -265 5 -48 12 -108 20 -170 2 -16 7 -61
10 -100 4 -38 8 -77 10 -85 4 -24 16 -171 20 -251 16 -324 19 -425 19 -649 -1
-235 -9 -516 -18 -600 -2 -19 -7 -75 -11 -125 -3 -49 -8 -112 -10 -140 -2 -27
-7 -81 -10 -120 -5 -67 -11 -120 -20 -175 -7 -40 -56 -381 -61 -425 -7 -56
-15 -95 -79 -400 -3 -11 -7 -33 -11 -50 -22 -114 -60 -276 -86 -369 -16 -59
-31 -115 -33 -125 -3 -16 -10 -39 -59 -216 -54 -193 -252 -755 -321 -910 -8
-16 -39 -93 -71 -170 -31 -77 -87 -203 -124 -280 -111 -229 -214 -436 -250
-500 -181 -326 -272 -478 -379 -640 -69 -104 -128 -194 -130 -199 -33 -76
-505 -697 -646 -850 -6 -6 -50 -58 -99 -116 -174 -207 -577 -616 -780 -793
-22 -19 -172 -155 -190 -172 -6 -6 -33 -28 -61 -50 -27 -22 -56 -46 -63 -53
-8 -7 -30 -25 -50 -40 -21 -15 -39 -29 -42 -32 -3 -3 -70 -57 -150 -121 -212
-168 -596 -437 -820 -573 -107 -65 -211 -128 -230 -141 -106 -67 -154 -94
-395 -220 -60 -32 -146 -77 -190 -100 -44 -24 -154 -77 -245 -118 -234 -106
-278 -126 -336 -153 -28 -13 -75 -33 -105 -43 -30 -11 -83 -31 -119 -44 -335
-127 -482 -181 -552 -202 -46 -13 -157 -47 -248 -75 -148 -45 -321 -91 -570
-151 -47 -11 -103 -25 -124 -31 -22 -5 -49 -12 -60 -14 -34 -7 -397 -71 -446
-79 -25 -4 -88 -15 -140 -25 -52 -10 -147 -24 -210 -30 -63 -7 -126 -14 -140
-15 -14 -2 -54 -6 -90 -9 -36 -4 -81 -9 -100 -11 -88 -10 -169 -18 -215 -20
-27 -1 -126 -6 -220 -11 -200 -11 -902 -11 -1025 0 -83 7 -155 13 -235 21 -22
2 -76 6 -120 9 -70 4 -73 4 -25 -4 30 -5 80 -12 110 -15 30 -4 69 -8 85 -11
17 -2 116 -13 220 -24 105 -11 210 -22 235 -25 76 -8 132 -14 205 -20 39 -3
88 -8 110 -10 22 -2 85 -7 140 -11 55 -3 116 -8 135 -10 268 -26 796 -25 960
1 14 2 43 7 65 9 44 6 107 15 145 22 103 17 200 34 225 37 17 3 55 9 85 15 30
7 89 18 130 26 41 9 86 17 100 20 14 2 61 12 105 21 44 9 89 18 100 21 63 12
214 47 240 54 17 5 41 11 55 14 21 4 56 12 130 30 183 46 199 51 405 116 128
41 437 148 485 169 14 6 86 33 160 62 498 189 1056 464 1430 704 19 12 91 57
160 100 380 237 985 663 1164 820 6 6 40 35 76 65 36 30 72 61 81 70 9 8 52
46 95 85 43 38 187 178 319 310 295 295 377 384 677 725 31 36 67 79 79 95 13
17 26 32 29 35 39 33 294 364 406 525 359 517 775 1268 1033 1865 23 52 46
104 51 115 64 137 192 507 271 785 27 96 56 198 64 225 20 69 121 486 135 560
6 33 15 74 20 90 5 17 12 46 16 65 3 19 7 40 8 45 10 45 16 74 20 98 3 15 7
35 10 45 3 9 7 33 10 52 3 19 15 85 26 145 11 61 30 166 41 235 11 69 22 136
24 150 5 32 32 236 41 315 3 33 8 68 9 77 2 9 7 54 10 100 4 46 8 99 10 118
18 173 23 621 11 870 -12 241 -16 304 -21 368 -3 35 -8 89 -10 120 -12 147
-16 189 -20 212 -2 14 -7 59 -10 100 -3 41 -10 104 -15 140 -5 36 -12 92 -15
125 -6 59 -10 85 -19 135 -3 14 -8 50 -11 81 -3 31 -7 65 -9 75 -5 28 -16 95
-21 129 -2 17 -6 39 -8 50 -3 11 -8 40 -12 65 -50 324 -152 774 -236 1045 -41
130 -142 422 -159 460 -5 11 -18 43 -29 70 -345 880 -840 1829 -1249 2400 -87
121 -363 468 -402 505 -3 3 -52 59 -109 125 -58 66 -112 127 -120 136 -9 9
-63 67 -121 130 -126 137 -593 604 -709 709 -46 41 -95 87 -110 101 -21 20
-210 185 -341 296 -292 249 -707 528 -1135 763 -33 18 -80 45 -105 59 -297
167 -938 477 -1280 618 -47 19 -98 41 -115 48 -16 7 -93 37 -170 65 -77 28
-149 56 -160 61 -86 39 -687 211 -825 236 -14 2 -74 15 -134 29 -171 38 -453
90 -761 139 -55 9 -112 18 -126 20 -14 2 -61 8 -105 14 -107 16 -130 19 -194
26 -30 4 -66 8 -80 10 -14 2 -54 6 -90 10 -36 3 -78 8 -95 10 -16 2 -64 7
-105 10 -41 3 -102 8 -135 12 -58 6 -863 12 -868 7z m-2097 -630 c-91 -25
-172 -46 -180 -48 -8 -2 -69 -21 -135 -41 -134 -41 -174 -52 -135 -35 72 32
553 168 595 168 11 0 -54 -20 -145 -44z m-490 -144 c-8 -5 -22 -9 -30 -9 -10
0 -8 3 5 9 27 12 43 12 25 0z m-160 -51 c-63 -22 -157 -55 -209 -75 -51 -19
-95 -33 -97 -31 -8 8 374 145 406 146 8 0 -37 -18 -100 -40z m-500 -183 c0 -2
-7 -7 -16 -10 -8 -3 -12 -2 -9 4 6 10 25 14 25 6z m-90 -38 c-14 -6 -63 -29
-109 -50 -87 -39 -118 -49 -66 -21 46 26 179 83 190 82 6 0 -1 -5 -15 -11z
m-211 -92 c-10 -9 -69 -36 -69 -32 0 7 52 35 64 36 5 0 7 -2 5 -4z m-89 -40
c0 -2 -7 -7 -16 -10 -8 -3 -12 -2 -9 4 6 10 25 14 25 6z m-41 -20 c-2 -2 -15
-9 -29 -15 -24 -11 -24 -11 -6 3 16 13 49 24 35 12z m-89 -46 c-19 -11 -39
-19 -45 -19 -5 0 6 8 25 19 19 11 40 19 45 19 6 0 -6 -8 -25 -19z m-82 -35
c-9 -9 -188 -95 -188 -90 0 6 172 94 184 94 5 1 7 -1 4 -4z m-203 -105 c-3 -5
-12 -10 -18 -10 -7 0 -6 4 3 10 19 12 23 12 15 0z m-285 -144 c0 -2 -8 -10
-17 -17 -16 -13 -17 -12 -4 4 13 16 21 21 21 13z m-85 -52 c-24 -18 -83 -50
-73 -39 10 10 81 54 88 54 3 0 -4 -7 -15 -15z"/>
</g>
</svg>
